<?xml version="1.0" standalone="no"?>
<!DOCTYPE svg PUBLIC "-//W3C//DTD SVG 20010904//EN"
 "http://www.w3.org/TR/2001/REC-SVG-20010904/DTD/svg10.dtd">
<svg version="1.0" xmlns="http://www.w3.org/2000/svg"
 width="980.000000pt" height="980.000000pt" viewBox="0 0 980.000000 980.000000"
 preserveAspectRatio="xMidYMid meet">

<g transform="translate(0.000000,980.000000) scale(0.100000,-0.100000)"
fill="#000000" stroke="none">
<path d="M1226 6415 c-43 -15 -91 -57 -112 -97 -11 -22 -14 -106 -13 -465 0
-434 1 -437 18 -378 24 84 84 231 146 361 66 137 103 174 173 174 27 0 52 4
57 9 6 6 32 11 60 13 44 3 51 6 64 33 11 23 12 41 4 85 -5 30 -13 62 -17 71
-5 10 2 27 18 47 18 20 26 42 26 66 0 28 7 43 33 66 l32 29 -225 0 c-165 0
-235 -4 -264 -14z"/>
<path d="M1895 6415 c72 -57 78 -75 50 -156 -9 -24 -13 -49 -11 -55 5 -12 -70
-142 -101 -176 -14 -15 -14 -20 -2 -34 8 -10 28 -23 45 -30 17 -7 46 -26 65
-42 19 -17 51 -44 71 -61 56 -48 77 -102 88 -224 14 -158 29 -229 67 -319 18
-45 37 -102 40 -127 6 -47 6 -47 117 -149 l36 -33 -2 644 -3 643 -28 42 c-49
74 -86 86 -282 89 -156 3 -168 2 -150 -12z"/>
<path d="M2960 4895 l0 -1525 280 0 280 0 0 1182 c0 650 4 1178 8 1173 7 -8
300 -1326 514 -2312 l10 -43 434 0 434 0 0 1525 0 1525 -285 0 -285 0 -1 -917
c-1 -505 -4 -943 -7 -973 -6 -49 -27 53 -180 870 -96 509 -178 946 -184 973
l-10 47 -504 0 -504 0 0 -1525z"/>
<path d="M5140 4895 l0 -1525 495 0 c274 0 539 5 593 10 353 38 536 170 609
440 27 97 26 659 0 770 -56 241 -195 356 -464 386 -35 3 -63 10 -63 14 0 4 28
13 63 19 218 41 374 137 433 265 43 95 54 173 54 402 0 234 -13 317 -67 416
-63 116 -196 215 -358 268 -169 54 -251 60 -799 60 l-496 0 0 -1525z m920
1069 c15 -9 36 -31 46 -48 18 -29 19 -55 19 -346 0 -349 -1 -355 -64 -397 -28
-19 -47 -23 -112 -23 l-79 0 0 413 c0 228 3 417 8 421 12 13 152 -3 182 -20z
m6 -1209 c63 -26 64 -37 64 -472 0 -349 -2 -391 -18 -423 -22 -44 -62 -59
-164 -59 l-78 -1 0 485 0 485 80 0 c48 0 95 -6 116 -15z"/>
<path d="M7486 6403 c-3 -10 -125 -686 -271 -1503 -146 -817 -269 -1495 -272
-1507 l-5 -23 326 0 c179 0 326 2 326 5 0 13 101 773 106 798 l6 27 173 0 174
0 6 -42 c6 -44 75 -759 75 -778 0 -7 107 -10 325 -10 l326 0 -6 33 c-3 17
-104 689 -225 1492 -121 803 -222 1475 -225 1493 l-6 32 -414 0 c-385 0 -414
-1 -419 -17z m459 -1139 c30 -324 55 -599 55 -611 0 -23 -2 -23 -115 -23 -97
0 -115 2 -115 16 0 8 25 281 55 605 30 324 55 595 55 601 0 6 2 9 5 6 3 -3 30
-270 60 -594z"/>
<path d="M1867 5568 c-21 -20 -47 -68 -71 -127 l-37 -94 30 -31 c39 -41 115
-295 99 -331 -17 -38 81 -417 137 -530 36 -72 50 -117 71 -225 17 -87 37 -156
56 -194 29 -57 29 -62 23 -152 -6 -71 -4 -105 8 -141 17 -53 58 -214 64 -253
3 -17 -5 -39 -26 -67 -23 -32 -27 -43 -16 -43 33 0 96 42 122 82 l28 42 3 626
2 627 -43 -41 c-173 -167 -451 4 -386 237 10 38 76 113 132 150 l28 18 -40 72
c-58 105 -81 169 -105 291 -12 60 -28 112 -34 114 -7 2 -27 -11 -45 -30z"/>
<path d="M1100 4430 c0 -742 2 -917 14 -943 17 -43 76 -93 123 -106 24 -7 192
-11 444 -11 l407 0 -15 42 c-10 30 -14 77 -12 158 2 78 -1 122 -9 138 -7 12
-10 32 -7 43 4 13 -8 47 -34 99 -23 43 -40 90 -39 103 4 50 -31 100 -115 164
-228 172 -256 200 -417 432 -86 123 -98 136 -122 133 -23 -3 -28 1 -34 25 -4
15 -33 94 -65 176 -51 127 -59 156 -59 212 0 68 15 118 50 162 21 27 19 46 -5
36 -22 -8 -63 5 -85 27 -20 20 -20 16 -20 -890z m244 -517 c3 -10 10 -49 17
-88 13 -79 31 -113 27 -50 -1 22 -1 66 0 98 l2 57 35 0 35 0 0 -200 0 -200
-55 0 c-62 0 -57 -9 -91 160 l-19 95 -5 -125 -5 -125 -37 -3 -38 -3 0 194 c0
106 3 197 7 200 3 4 32 7 64 7 46 0 59 -3 63 -17z m298 7 c47 -13 68 -43 68
-96 0 -33 -5 -47 -24 -61 l-24 -19 24 -21 c34 -30 34 -120 1 -158 -20 -24 -31
-27 -110 -32 l-87 -6 0 202 0 201 58 0 c31 0 74 -5 94 -10z m265 -2 c4 -7 19
-95 33 -196 29 -202 31 -196 -36 -190 -39 3 -39 3 -44 53 -4 42 -8 50 -25 50
-11 0 -21 -7 -22 -15 -12 -90 -11 -90 -53 -90 -33 0 -40 3 -40 20 0 25 60 362
67 373 7 12 111 8 120 -5z"/>
<path d="M1580 3815 c0 -41 3 -56 13 -52 7 2 12 22 12 52 0 30 -5 50 -12 53
-10 3 -13 -12 -13 -53z"/>
<path d="M1580 3650 c0 -47 3 -60 15 -60 12 0 15 13 15 60 0 47 -3 60 -15 60
-12 0 -15 -13 -15 -60z"/>
<path d="M1831 3773 c0 -23 -4 -48 -7 -57 -4 -11 -1 -16 10 -16 18 0 19 15 7
75 l-9 40 -1 -42z"/>
</g>
</svg>
